<?xml version="1.0" encoding="UTF-8"?>
<svg version="1.1" xmlns="http://www.w3.org/2000/svg" width="315" height="256">
<path d="M0 0 C103.95 0 207.9 0 315 0 C315 84.48 315 168.96 315 256 C211.05 256 107.1 256 0 256 C0 171.52 0 87.04 0 0 Z " fill="#1181B9" transform="translate(0,0)"/>
<path d="M0 0 C3.40980715 2.30161982 6.46966384 4.9104196 9.5 7.6875 C5.25337519 12.25154929 0.48060669 15.79340376 -4.5625 19.4375 C-6.25810794 20.67407416 -7.95342026 21.91105377 -9.6484375 23.1484375 C-10.8854541 24.04900879 -10.8854541 24.04900879 -12.14746094 24.96777344 C-15.34712189 27.30675349 -18.5213627 29.67842273 -21.6875 32.0625 C-22.62980469 32.77148438 -23.57210937 33.48046875 -24.54296875 34.2109375 C-25.18878906 34.69820312 -25.83460937 35.18546875 -26.5 35.6875 C-24.25041666 38.27083229 -24.25041666 38.27083229 -21.5 40.6875 C-16.78362784 40.6875 -15.08815411 39.20081205 -11.625 36.375 C-11.06345215 35.93003174 -10.5019043 35.48506348 -9.92333984 35.02661133 C-8.72698793 34.07769501 -7.53387383 33.12468467 -6.34375 32.16796875 C-3.88501813 30.1936904 -1.40825168 28.24285671 1.07080078 26.29418945 C2.23793816 25.37611509 3.40311613 24.45554189 4.56591797 23.53198242 C6.20140898 22.23800756 7.84635057 20.95818123 9.5 19.6875 C10.43150879 18.97170776 10.43150879 18.97170776 11.38183594 18.24145508 C16.20190735 14.65023842 16.20190735 14.65023842 19 15 C22.40980715 17.30161982 25.46966384 19.9104196 28.5 22.6875 C24.92337476 26.40399326 21.15154132 29.66477504 17.0625 32.8125 C15.82792414 33.77057456 14.59355556 34.72891627 13.359375 35.6875 C12.72708984 36.17734375 12.09480469 36.6671875 11.44335938 37.171875 C9.47720758 38.7052758 7.52589834 40.25583799 5.578125 41.8125 C4.63151001 42.56635986 4.63151001 42.56635986 3.66577148 43.33544922 C2.4519657 44.30284812 1.24044553 45.27312343 0.03149414 46.24658203 C-2.47719412 48.23723149 -4.43434627 49.66561542 -7.5 50.6875 C-5.52 52.9975 -3.54 55.3075 -1.5 57.6875 C1.89026079 55.9923696 4.23212365 54.42768555 7.125 52.0625 C8.00800781 51.34578125 8.89101562 50.6290625 9.80078125 49.890625 C10.69152344 49.16359375 11.58226562 48.4365625 12.5 47.6875 C14.10216147 46.39334696 15.70630734 45.10164647 17.3125 43.8125 C18.12203125 43.13058594 18.9315625 42.44867188 19.765625 41.74609375 C22.5 39.6875 22.5 39.6875 25.984375 37.91015625 C29.97069683 35.74819344 33.27948955 33.75999081 35.5 29.6875 C37.4163095 20.85320148 36.88496974 11.66171264 36.5 2.6875 C41.78 2.6875 47.06 2.6875 52.5 2.6875 C52.5 20.8375 52.5 38.9875 52.5 57.6875 C62.07 57.6875 71.64 57.6875 81.5 57.6875 C81.5 62.3075 81.5 66.9275 81.5 71.6875 C66.98 71.6875 52.46 71.6875 37.5 71.6875 C37.5 63.4375 37.5 55.1875 37.5 46.6875 C35.045625 48.564375 32.59125 50.44125 30.0625 52.375 C29.24056152 53.00349854 28.41862305 53.63199707 27.57177734 54.27954102 C23.62293051 57.29906477 19.67441847 60.31902459 15.7265625 63.33984375 C14.96529053 63.9222583 14.20401855 64.50467285 13.41967773 65.10473633 C11.95813641 66.22291215 10.49670634 67.34123339 9.03540039 68.4597168 C5.86740485 70.8832009 2.69788757 73.3034707 -0.5 75.6875 C-4.64771536 73.89501999 -8.05135995 71.15203314 -11.625 68.4375 C-12.65778076 67.65971191 -12.65778076 67.65971191 -13.71142578 66.86621094 C-17.66638508 63.87628652 -21.58637819 60.84504515 -25.484375 57.78125 C-26.30019043 57.1409082 -27.11600586 56.50056641 -27.95654297 55.84082031 C-29.55299662 54.58441483 -31.14585787 53.32342949 -32.73486328 52.05761719 C-33.45915527 51.48688477 -34.18344727 50.91615234 -34.9296875 50.328125 C-35.57147949 49.81797852 -36.21327148 49.30783203 -36.87451172 48.78222656 C-38.44985241 47.50129871 -38.44985241 47.50129871 -40.5 47.6875 C-40.809375 48.80125 -41.11875 49.915 -41.4375 51.0625 C-44.41974745 58.90831923 -50.45607839 64.99165904 -57.875 68.75 C-63.2978492 71.1687629 -67.7584668 71.82483411 -73.66796875 71.78515625 C-74.37264282 71.78414917 -75.07731689 71.78314209 -75.80334473 71.78210449 C-78.43141308 71.77687914 -81.0594582 71.76291786 -83.6875 71.75 C-89.565625 71.729375 -95.44375 71.70875 -101.5 71.6875 C-101.5 48.9175 -101.5 26.1475 -101.5 2.6875 C-59.58633094 2.6875 -59.58633094 2.6875 -48.85546875 13.31640625 C-44.89987407 17.63251082 -42.15969237 22.49756931 -39.5 27.6875 C-38.75878906 27.11644531 -38.01757812 26.54539062 -37.25390625 25.95703125 C-33.67118743 23.19802561 -30.08585197 20.44243176 -26.5 17.6875 C-25.78344238 17.13674805 -25.06688477 16.58599609 -24.32861328 16.01855469 C-22.09508712 14.30271384 -19.86019908 12.58866081 -17.625 10.875 C-16.9244751 10.33657471 -16.2239502 9.79814941 -15.50219727 9.2434082 C-13.50796698 7.71595799 -11.50596308 6.19949844 -9.5 4.6875 C-8.84805664 4.18968018 -8.19611328 3.69186035 -7.52441406 3.17895508 C-2.7896462 -0.34870578 -2.7896462 -0.34870578 0 0 Z " fill="#FAFCFD" transform="translate(145.5,92.3125)"/>
<path d="M0 0 C5.28 0 10.56 0 16 0 C16 18.15 16 36.3 16 55 C25.24 55 34.48 55 44 55 C44 59.62 44 64.24 44 69 C29.48 69 14.96 69 0 69 C0 46.23 0 23.46 0 0 Z " fill="#FBFDFD" transform="translate(233,95)"/>
<path d="M0 0 C19.42382271 0 19.42382271 0 24 4 C29.59290753 10.136148 31.3339639 14.87678314 31.203125 23.15234375 C30.73385916 29.73108991 28.86576912 33.52799605 23.9375 37.9375 C15.67040843 44.69588585 15.01056492 42 0 42 C0 28.14 0 14.28 0 0 Z " fill="#1684BA" transform="translate(59,109)"/>
</svg>
